<svg viewBox="0 0 3000 2000" xmlns="http://www.w3.org/2000/svg">
<path d="M2.27374e-13 500C2.27374e-13 223.858 223.858-1.13687e-13 500-1.13687e-13L2500-1.13687e-13C2776.14-1.13687e-13 3000 223.858 3000 500L3000 1500C3000 1776.14 2776.14 2000 2500 2000L500 2000C223.858 2000 2.27374e-13 1776.14 2.27374e-13 1500L2.27374e-13 500Z" fill="#81c784"/>
<path d="M0 666.667L3000 666.667L3000 1333.33L0 1333.33L0 666.667Z" fill="#ffd54f" fill-rule="nonzero" opacity="1" stroke="none"/>
<path d="M0 1333.34L0 1500C0 1776.14 223.858 2000 500 2000L2500 2000C2776.14 2000 3000 1776.14 3000 1500L3000 1333.34L0 1333.34Z" fill="#ef5350"/>
<path d="M875 1000C875 654.822 1154.82 375 1500 375C1845.18 375 2125 654.822 2125 1000C2125 1345.18 1845.18 1625 1500 1625C1154.82 1625 875 1345.18 875 1000Z" fill="#64b5f6"/>
<path d="M1500 501.523L1793.89 1406.03L1024.47 847.015L1975.53 847.015L1206.11 1406.03L1500 501.523Z" fill="none" opacity="1" stroke="#ffd54f" stroke-linecap="round" stroke-linejoin="round" stroke-width="75"/>
<path d="M1500 1501.52L1500 1376.52" fill="none" opacity="1" stroke="#ffd54f" stroke-linecap="round" stroke-linejoin="miter" stroke-width="75"/>
<path d="M1975.53 1156.03L1856.65 1117.4" fill="none" opacity="1" stroke="#ffd54f" stroke-linecap="round" stroke-linejoin="miter" stroke-width="75"/>
<path d="M1793.89 597.015L1720.42 698.142" fill="none" opacity="1" stroke="#ffd54f" stroke-linecap="round" stroke-linejoin="miter" stroke-width="75"/>
<path d="M1206.11 597.015L1279.58 698.142" fill="none" opacity="1" stroke="#ffd54f" stroke-linecap="round" stroke-linejoin="miter" stroke-width="75"/>
<path d="M1024.47 1156.03L1143.35 1117.4" fill="none" opacity="1" stroke="#ffd54f" stroke-linecap="round" stroke-linejoin="miter" stroke-width="75"/>
</svg>