<svg viewBox="0 0 3000 2000" xmlns="http://www.w3.org/2000/svg">
<path d="M0 500C0 223.858 223.858 0 500 0L2500 0C2776.14 0 3000 223.858 3000 500L3000 1500C3000 1776.14 2776.14 2000 2500 2000L500 2000C223.858 2000 0 1776.14 0 1500L0 500Z" fill="#9ccc65"/>
<path d="M10.0312 400C8.39171 408.077 6.93534 416.223 5.6875 424.438C4.43966 432.652 3.40652 440.941 2.5625 449.281C2.5468 449.436 2.5468 449.595 2.53125 449.75C1.72098 457.869 1.07336 466.053 0.65625 474.281C0.221862 482.799 0 491.375 0 500L0 800L3000 800L3000 500C3000 465.755 2996.53 432.31 2989.97 400L10.0312 400Z" fill="#ef5350"/>
<path d="M0 800L3000 800L3000 1200L0 1200L0 800Z" fill="#fafafa" fill-rule="nonzero" opacity="1" stroke="none"/>
<path d="M0 1200L0 1500C0 1508.56 0.228177 1517.07 0.65625 1525.53C1.07349 1533.82 1.71486 1542.07 2.53125 1550.25C2.54681 1550.41 2.5468 1550.56 2.5625 1550.72C3.40652 1559.06 4.43966 1567.35 5.6875 1575.56C6.93534 1583.78 8.39171 1591.92 10.0312 1600L2989.97 1600C2996.53 1567.69 3000 1534.25 3000 1500L3000 1200L0 1200Z" fill="#64b5f6"/>
<path d="M10.0312 1600C10.671 1603.15 11.4575 1606.24 12.1562 1609.38C13.1681 1613.91 14.1472 1618.45 15.2812 1622.94C16.1145 1626.23 17.0704 1629.48 17.9688 1632.75C19.0803 1636.8 20.165 1640.84 21.375 1644.84C22.5226 1648.64 23.7651 1652.4 25 1656.16C26.1759 1659.73 27.371 1663.3 28.625 1666.84C29.9066 1670.46 31.2316 1674.07 32.5938 1677.66C33.9201 1681.14 35.2858 1684.61 36.6875 1688.06C38.1901 1691.76 39.7245 1695.44 41.3125 1699.09C42.8355 1702.6 44.4309 1706.07 46.0312 1709.53C47.5869 1712.9 49.1222 1716.27 50.75 1719.59C52.537 1723.24 54.4087 1726.84 56.2812 1730.44C57.913 1733.57 59.4917 1736.75 61.1875 1739.84C62.9117 1742.99 64.773 1746.05 66.5625 1749.16C70.3082 1755.66 74.1932 1762.06 78.2188 1768.38C80.216 1771.51 82.1854 1774.67 84.25 1777.75C85.9578 1780.3 87.7468 1782.79 89.5 1785.31C92.1696 1789.15 94.8518 1792.96 97.625 1796.72C99.428 1799.16 101.279 1801.56 103.125 1803.97C105.895 1807.58 108.698 1811.16 111.562 1814.69C113.489 1817.06 115.437 1819.41 117.406 1821.75C120.354 1825.25 123.365 1828.71 126.406 1832.12C128.498 1834.48 130.584 1836.84 132.719 1839.16C135.47 1842.13 138.271 1845.06 141.094 1847.97C143.694 1850.65 146.279 1853.35 148.938 1855.97C152.023 1859.01 155.211 1861.94 158.375 1864.91C160.506 1866.9 162.584 1868.95 164.75 1870.91C170.289 1875.92 175.928 1880.83 181.688 1885.59C181.779 1885.67 181.877 1885.74 181.969 1885.81C187.867 1890.68 193.879 1895.4 200 1900C201.478 1901.11 203.01 1902.16 204.5 1903.25C209.076 1906.61 213.682 1909.92 218.375 1913.12C220.597 1914.64 222.846 1916.11 225.094 1917.59C229.049 1920.2 233.03 1922.78 237.062 1925.28C239.813 1926.99 242.589 1928.66 245.375 1930.31C249.102 1932.52 252.868 1934.67 256.656 1936.78C259.678 1938.47 262.721 1940.12 265.781 1941.75C269.448 1943.7 273.155 1945.58 276.875 1947.44C279.868 1948.93 282.849 1950.44 285.875 1951.88C290.187 1953.92 294.558 1955.89 298.938 1957.81C301.54 1958.96 304.124 1960.15 306.75 1961.25C313.726 1964.18 320.774 1966.98 327.906 1969.59C327.968 1969.62 328.032 1969.63 328.094 1969.66C335.32 1972.3 342.622 1974.78 350 1977.09C352.22 1977.79 354.485 1978.4 356.719 1979.06C361.962 1980.63 367.218 1982.13 372.531 1983.53C375.413 1984.29 378.317 1984.98 381.219 1985.69C385.677 1986.77 390.152 1987.82 394.656 1988.78C397.965 1989.49 401.292 1990.17 404.625 1990.81C409.175 1991.69 413.751 1992.5 418.344 1993.25C421.65 1993.79 424.954 1994.33 428.281 1994.81C432.934 1995.48 437.619 1996.05 442.312 1996.59C445.474 1996.96 448.633 1997.32 451.812 1997.62C457.177 1998.14 462.588 1998.53 468 1998.88C470.546 1999.04 473.069 1999.25 475.625 1999.38C483.707 1999.76 491.821 2000 500 2000L2500 2000C2741.9 2000 2943.64 1828.23 2989.97 1600L10.0312 1600Z" fill="#ffd54f"/>
</svg>