<svg viewBox="0 0 3000 2000" xmlns="http://www.w3.org/2000/svg">
<path d="M0 500C0 223.858 223.858 0 500 0L2500 0C2776.14 0 3000 223.858 3000 500L3000 1500C3000 1776.14 2776.14 2000 2500 2000L500 2000C223.858 2000 0 1776.14 0 1500L0 500Z" fill="#ef5350"/>
<path d="M323.562 32.125C313.801 35.8085 304.21 39.8284 294.75 44.0937C293.637 44.5957 292.515 45.0839 291.406 45.5938C277.436 52.0171 263.835 59.0819 250.594 66.7188C249.652 67.2618 248.688 67.7635 247.75 68.3125C243.578 70.755 239.437 73.2538 235.344 75.8125C234.008 76.6475 232.702 77.5278 231.375 78.375C225.006 82.4401 218.731 86.6589 212.562 91C210.094 92.7383 207.623 94.4685 205.188 96.25C202.315 98.35 199.482 100.497 196.656 102.656C193.783 104.853 190.948 107.087 188.125 109.344C184.094 112.565 180.115 115.846 176.188 119.187C173.163 121.762 170.149 124.356 167.188 127C164.533 129.369 161.915 131.763 159.312 134.187C157.155 136.198 155.028 138.234 152.906 140.281C148.416 144.614 144.014 149.035 139.688 153.531C137.352 155.959 135.005 158.369 132.719 160.844C130.308 163.452 127.949 166.122 125.594 168.781C123.304 171.368 121.049 173.991 118.812 176.625C116.714 179.095 114.582 181.552 112.531 184.062C108.618 188.856 104.799 193.717 101.062 198.656C99.396 200.858 97.7869 203.114 96.1562 205.344C93.5688 208.884 91.027 212.452 88.5312 216.062C86.9632 218.33 85.3751 220.581 83.8438 222.875C80.4844 227.91 77.1793 232.995 74 238.156C72.2656 240.971 70.6172 243.836 68.9375 246.687C67.0484 249.895 65.194 253.122 63.375 256.375C61.7522 259.276 60.1288 262.188 58.5625 265.125C55.6588 270.571 52.8307 276.061 50.125 281.625C48.9934 283.951 47.9402 286.31 46.8438 288.656C44.9936 292.617 43.186 296.609 41.4375 300.625C40.2046 303.456 38.9942 306.298 37.8125 309.156C35.4974 314.757 33.2403 320.393 31.125 326.094C30.3942 328.063 29.7066 330.051 29 332.031C27.2438 336.955 25.5736 341.913 23.9688 346.906C23.0316 349.822 22.1035 352.749 21.2188 355.687C19.6572 360.875 18.1773 366.087 16.7812 371.344C16.3929 372.806 15.9691 374.251 15.5938 375.719C13.9427 382.174 12.4595 388.697 11.0625 395.25C10.4293 398.219 9.86145 401.199 9.28125 404.187C8.41198 408.666 7.59264 413.168 6.84375 417.687C6.39508 420.395 5.90496 423.09 5.5 425.812L567 750L1000.03 1000L567 1250L5.5 1574.19C5.90496 1576.91 6.39508 1579.6 6.84375 1582.31C7.59264 1586.83 8.41198 1591.33 9.28125 1595.81C9.86144 1598.8 10.4293 1601.78 11.0625 1604.75C12.4236 1611.13 13.8665 1617.49 15.4688 1623.78C15.885 1625.42 16.349 1627.03 16.7812 1628.66C18.1773 1633.91 19.6572 1639.13 21.2188 1644.31C22.1035 1647.25 23.0316 1650.18 23.9688 1653.09C25.5736 1658.09 27.2438 1663.05 29 1667.97C29.5302 1669.45 30.0187 1670.96 30.5625 1672.44C32.8415 1678.64 35.2974 1684.76 37.8125 1690.84C38.9942 1693.7 40.2046 1696.55 41.4375 1699.38C43.1861 1703.39 44.9935 1707.38 46.8438 1711.34C47.9402 1713.69 48.9934 1716.05 50.125 1718.38C52.8307 1723.94 55.6588 1729.43 58.5625 1734.88C60.1288 1737.81 61.7522 1740.72 63.375 1743.62C65.194 1746.88 67.0484 1750.11 68.9375 1753.31C70.6172 1756.16 72.2656 1759.03 74 1761.84C77.1792 1767.01 80.4844 1772.09 83.8438 1777.12C85.3751 1779.42 86.9632 1781.67 88.5312 1783.94C91.027 1787.55 93.5689 1791.12 96.1562 1794.66C97.7869 1796.89 99.3961 1799.14 101.062 1801.34C104.799 1806.28 108.618 1811.15 112.531 1815.94C114.582 1818.45 116.714 1820.91 118.812 1823.38C121.049 1826.01 123.304 1828.63 125.594 1831.22C127.949 1833.88 130.308 1836.55 132.719 1839.16C135.005 1841.63 137.352 1844.04 139.688 1846.47C144.014 1850.97 148.416 1855.39 152.906 1859.72C155.028 1861.77 157.155 1863.8 159.312 1865.81C161.915 1868.24 164.533 1870.63 167.188 1873C170.149 1875.64 173.163 1878.24 176.188 1880.81C180.115 1884.15 184.094 1887.44 188.125 1890.66C190.948 1892.91 193.783 1895.15 196.656 1897.34C199.482 1899.5 202.315 1901.65 205.188 1903.75C207.623 1905.53 210.093 1907.26 212.562 1909C218.731 1913.34 225.006 1917.56 231.375 1921.62C232.702 1922.47 234.008 1923.35 235.344 1924.19C239.437 1926.75 243.578 1929.25 247.75 1931.69C248.688 1932.24 249.652 1932.74 250.594 1933.28C263.835 1940.92 277.436 1947.98 291.406 1954.41C292.515 1954.92 293.637 1955.41 294.75 1955.91C304.099 1960.12 313.574 1964.1 323.219 1967.75C323.333 1967.79 323.448 1967.83 323.562 1967.88L1250 1433L1500 1288.66L1750 1433L2676.44 1967.88C2843.22 1904.94 2967.53 1755.49 2994.5 1574.19L2433 1250L1999.97 1000L2433 750L2994.5 425.812C2967.53 244.512 2843.22 95.0575 2676.44 32.125L1750 567L1500 711.344L1250 567L323.562 32.125Z" fill="#81c784"/>
<path d="M1250 0L1250 750L0 750L0 1250L1250 1250L1250 2000L1750 2000L1750 1250L3000 1250L3000 750L1750 750L1750 0L1250 0Z" fill="#fafafa"/>
</svg>