<svg viewBox="0 0 3000 2000" xmlns="http://www.w3.org/2000/svg">
<path d="M0 500C0 223.858 223.858 0 500 0L2500 0C2776.14 0 3000 223.858 3000 500L3000 1500C3000 1776.14 2776.14 2000 2500 2000L500 2000C223.858 2000 0 1776.14 0 1500L0 500Z" fill="#ef5350"/>
<path d="M267.406 57.4062C254.636 64.1309 242.209 71.42 230.125 79.1875C229.168 79.8028 228.203 80.4096 227.25 81.0312C221.777 84.6024 216.384 88.2856 211.062 92.0625C210.331 92.5813 209.603 93.1023 208.875 93.625C203.522 97.4671 198.254 101.423 193.062 105.469C192.214 106.13 191.376 106.802 190.531 107.469C167.471 125.677 146.025 145.83 126.5 167.75C125.411 168.974 124.359 170.234 123.281 171.469C118.985 176.388 114.76 181.383 110.656 186.469C109.916 187.387 109.203 188.326 108.469 189.25C108.095 189.72 107.716 190.185 107.344 190.656C106.924 191.185 106.51 191.718 106.094 192.25C102.374 197.001 98.7363 201.801 95.1875 206.688C93.7832 208.622 92.4084 210.576 91.0312 212.531C87.6033 217.396 84.2563 222.322 81 227.312C79.6136 229.439 78.2298 231.57 76.875 233.719C73.6021 238.906 70.4287 244.155 67.3438 249.469C66.2056 251.43 65.0809 253.397 63.9688 255.375C60.9715 260.704 58.0864 266.115 55.2812 271.562C54.1406 273.779 52.9833 275.983 51.875 278.219C49.1313 283.75 46.5113 289.355 43.9688 295C43.0503 297.04 42.1105 299.071 41.2188 301.125C38.6466 307.049 36.2217 313.053 33.875 319.094C33.0925 321.108 32.2571 323.098 31.5 325.125C29.0032 331.81 26.684 338.589 24.4688 345.406C24.0599 346.665 23.5866 347.893 23.1875 349.156C20.5806 357.403 18.1845 365.73 16 374.156L666.969 750L1099.97 1000L666.969 1250L16 1625.84C18.1845 1634.27 20.5806 1642.6 23.1875 1650.84C23.5866 1652.11 24.0599 1653.34 24.4688 1654.59C26.684 1661.41 29.0032 1668.19 31.5 1674.88C32.2571 1676.9 33.0925 1678.89 33.875 1680.91C36.2217 1686.95 38.6466 1692.95 41.2188 1698.88C41.7333 1700.06 42.289 1701.23 42.8125 1702.41C43.2034 1703.27 43.5803 1704.14 43.9688 1705C46.5112 1710.65 49.1313 1716.25 51.875 1721.78C52.9833 1724.02 54.1406 1726.22 55.2812 1728.44C58.0864 1733.89 60.9715 1739.3 63.9688 1744.62C64.8864 1746.26 65.8147 1747.88 66.75 1749.5C66.9483 1749.84 67.1447 1750.19 67.3438 1750.53C70.4287 1755.84 73.6021 1761.09 76.875 1766.28C78.2298 1768.43 79.6136 1770.56 81 1772.69C84.2564 1777.68 87.6033 1782.6 91.0312 1787.47C92.4083 1789.42 93.7832 1791.38 95.1875 1793.31C98.7363 1798.2 102.374 1803 106.094 1807.75C107.607 1809.68 109.115 1811.62 110.656 1813.53C114.76 1818.62 118.985 1823.61 123.281 1828.53C124.359 1829.77 125.411 1831.03 126.5 1832.25C146.025 1854.17 167.471 1874.32 190.531 1892.53C191.376 1893.2 192.214 1893.87 193.062 1894.53C198.254 1898.58 203.522 1902.53 208.875 1906.38C209.603 1906.9 210.331 1907.42 211.062 1907.94C216.384 1911.71 221.777 1915.4 227.25 1918.97C228.203 1919.59 229.168 1920.2 230.125 1920.81C242.209 1928.58 254.636 1935.87 267.406 1942.59L1250 1375.31L1500 1230.97L1750 1375.31L2732.59 1942.59C2786.02 1914.46 2833.69 1876.94 2873.5 1832.25C2874.59 1831.03 2875.64 1829.77 2876.72 1828.53C2881.01 1823.61 2885.24 1818.62 2889.34 1813.53C2890.89 1811.62 2892.39 1809.68 2893.91 1807.75C2897.63 1803 2901.26 1798.2 2904.81 1793.31C2906.22 1791.38 2907.59 1789.42 2908.97 1787.47C2912.4 1782.6 2915.74 1777.68 2919 1772.69C2920.39 1770.56 2921.77 1768.43 2923.12 1766.28C2926.4 1761.09 2929.57 1755.85 2932.66 1750.53C2933.79 1748.57 2934.92 1746.6 2936.03 1744.62C2939.03 1739.3 2941.91 1733.89 2944.72 1728.44C2945.86 1726.22 2947.02 1724.02 2948.12 1721.78C2950.87 1716.25 2953.49 1710.64 2956.03 1705C2956.95 1702.96 2957.89 1700.93 2958.78 1698.88C2961.35 1692.95 2963.78 1686.95 2966.12 1680.91C2966.91 1678.89 2967.74 1676.9 2968.5 1674.88C2971 1668.19 2973.32 1661.41 2975.53 1654.59C2975.94 1653.34 2976.41 1652.11 2976.81 1650.84C2979.42 1642.6 2981.82 1634.27 2984 1625.84L2333.03 1250L1900.03 1000L2333.03 750L2984 374.156C2948.34 236.625 2855.6 122.183 2732.59 57.4062L1750 624.687L1500 769.031L1250 624.687L267.406 57.4062Z" fill="#81c784"/>
<path d="M1250 0L1250 750L0 750L0 1250L1250 1250L1250 2000L1750 2000L1750 1250L3000 1250L3000 750L1750 750L1750 0L1250 0Z" fill="#fafafa"/>
</svg>
