<svg viewBox="0 0 3000 2000" xmlns="http://www.w3.org/2000/svg">
<path d="M0 500C0 223.858 223.858-1.13687e-13 500-1.13687e-13L2500-1.13687e-13C2776.14-1.13687e-13 3000 223.858 3000 500L3000 1500C3000 1776.14 2776.14 2000 2500 2000L500 2000C223.858 2000 0 1776.14 0 1500L0 500Z" fill="#42A5F5"/>
<path d="M1500-1.13687e-13L1500 375L1500 1000L2125 1000L3000 1000L3000 500C3000 223.858 2776.14-1.13687e-13 2500-1.13687e-13L1500-1.13687e-13Z" fill="#424242"/>
<path d="M1500 1000L1500 1625L1500 2000L2500 2000C2776.14 2000 3000 1776.14 3000 1500L3000 1000L2125 1000L1500 1000Z" fill="#fafafa"/>
<path d="M0 1000L0 1500C0 1776.14 223.858 2000 500 2000L1500 2000L1500 1625L1500 1000L875 1000L0 1000Z" fill="#ef5350"/>
<path d="M875 1000C875 654.822 1154.82 375 1500 375C1845.18 375 2125 654.822 2125 1000C2125 1345.18 1845.18 1625 1500 1625C1154.82 1625 875 1345.18 875 1000Z" fill="#ffd54f"/>
</svg>