<svg viewBox="0 0 3000 2000" xmlns="http://www.w3.org/2000/svg">
<path d="M0 500C0 223.858 223.858 0 500 0L2500 0C2776.14 0 3000 223.858 3000 500L3000 1500C3000 1776.14 2776.14 2000 2500 2000L500 2000C223.858 2000 0 1776.14 0 1500L0 500Z" fill="#fafafa"/>
<path d="M0 1000L0 1500C0 1776.14 223.858 2000 500 2000L2500 2000C2776.14 2000 3000 1776.14 3000 1500L3000 1000L2000 1000C2000 1345.18 1720.18 1625 1375 1625C1029.82 1625 750 1345.18 750 1000L0 1000Z" fill="#ef5350"/>
<path d="M1375 375C1029.82 375 750 654.822 750 1000L2000 1000C2000 654.822 1720.18 375 1375 375Z" fill="#ef5350"/>
</svg>