<svg viewBox="0 0 3000 2000" xmlns="http://www.w3.org/2000/svg">
<path d="M0 500C0 223.858 223.858 0 500 0L2500 0C2776.14 0 3000 223.858 3000 500L3000 1500C3000 1776.14 2776.14 2000 2500 2000L500 2000C223.858 2000 0 1776.14 0 1500L0 500Z" fill="#5c6bc0"/>
<path d="M2822.69 118.219L177.312 1881.78C183.086 1886.67 188.975 1891.41 194.969 1896.03L2990.84 404.875C2989.64 398.631 2988.28 392.44 2986.84 386.281C2986.53 384.918 2986.23 383.546 2985.91 382.188C2984.49 376.306 2982.94 370.486 2981.31 364.687C2980.98 363.508 2980.65 362.332 2980.31 361.156C2978.55 355.039 2976.68 348.956 2974.69 342.937C2974.47 342.289 2974.25 341.647 2974.03 341C2971.9 334.64 2969.66 328.337 2967.28 322.094C2957.15 295.511 2944.84 269.995 2930.53 245.812C2927.18 240.146 2923.69 234.583 2920.12 229.062C2919.89 228.694 2919.68 228.306 2919.44 227.937C2919.3 227.724 2919.14 227.526 2919 227.312C2915.49 221.929 2911.87 216.612 2908.16 211.375C2907.97 211.106 2907.79 210.831 2907.59 210.562C2907.4 210.296 2907.19 210.048 2907 209.781C2903.34 204.661 2899.63 199.599 2895.78 194.625C2895.13 193.78 2894.44 192.966 2893.78 192.125C2889.89 187.162 2885.94 182.247 2881.88 177.437C2863.83 156.097 2844.03 136.276 2822.69 118.219Z" fill="#ffb74d"/>
<path d="M2990.84 404.875L194.969 1896.03C202.476 1901.82 210.1 1907.45 217.938 1912.81L3000 800L3000 500C3000 491.685 2999.78 483.434 2999.38 475.219C2999.13 470.285 2998.67 465.395 2998.28 460.5C2998.04 457.389 2997.89 454.251 2997.59 451.156C2996.83 443.436 2995.89 435.77 2994.78 428.156C2993.64 420.336 2992.33 412.576 2990.84 404.875Z" fill="#fafafa"/>
<path d="M500 750C500 611.929 611.929 500 750 500C888.071 500 1000 611.929 1000 750C1000 888.071 888.071 1000 750 1000C611.929 1000 500 888.071 500 750Z" fill="#fafafa"/>
</svg>