<svg viewBox="0 0 3000 2000" xmlns="http://www.w3.org/2000/svg">
<path d="M0 500C0 223.858 223.858 0 500 0L2500 0C2776.14 0 3000 223.858 3000 500L3000 1500C3000 1776.14 2776.14 2000 2500 2000L500 2000C223.858 2000 0 1776.14 0 1500L0 500Z" fill="#fafafa"/>
<path d="M1500-1.13687e-13L1500 2000L2500 2000C2776.14 2000 3000 1776.14 3000 1500L3000 500C3000 379.188 2957.14 268.398 2885.81 181.969C2875.62 169.622 2864.87 157.748 2853.56 146.437C2842.25 135.121 2830.39 124.382 2818.03 114.187C2811.86 109.093 2805.57 104.143 2799.16 99.3437C2715.74 36.9567 2612.18-1.13687e-13 2500-1.13687e-13L1500-1.13687e-13Z" fill="#ef5350"/>
</svg>