<svg viewBox="0 0 3000 2000" xmlns="http://www.w3.org/2000/svg">
	<path d="M0 500C0 223.858 223.858-1.13687e-13 500-1.13687e-13L2500-1.13687e-13C2776.14-1.13687e-13 3000 223.858 3000 500L3000 1500C3000 1776.14 2776.14 2000 2500 2000L500 2000C223.858 2000 0 1776.14 0 1500L0 500Z" fill="#4dd0e1"/>
	<path d="M1500 375C1154.82 375 875 654.822 875 1000C875 1345.18 1154.82 1625 1500 1625C1845.18 1625 2125 1345.18 2125 1000C2125 654.822 1845.18 375 1500 375ZM1500 687.5C1672.59 687.5 1812.5 827.411 1812.5 1000C1812.5 1172.59 1672.59 1312.5 1500 1312.5C1327.41 1312.5 1187.5 1172.59 1187.5 1000C1187.5 827.411 1327.41 687.5 1500 687.5Z" fill="#fafafa"/>
</svg>