<svg  viewBox="0 0 3000 3000" xmlns="http://www.w3.org/2000/svg">
<path d="M0 0L3000 0L3000 3000L0 3000L0 0Z" fill="#ffffff" fill-opacity="0"/>
<path d="M1625 500L1625 900L625 900L625 1100L1625 1100L1625 2100L625 2100L625 2300L1625 2300L1625 2500L2375 2500L2125 2300L2125 700L2375 500L1625 500Z" fill="#263340"/>
<path d="M625 1300L1375 1300L1375 1500L625 1500L625 1300Z" fill="#263340" fill-rule="nonzero" opacity="1" stroke="none"/>
<path d="M625 1700L1375 1700L1375 1900L625 1900L625 1700Z" fill="#263340" fill-rule="nonzero" opacity="1" stroke="none"/>
<path d="M625 650C625 567.157 692.157 500 775 500C857.843 500 925 567.157 925 650C925 732.843 857.843 800 775 800C692.157 800 625 732.843 625 650Z" fill="#263340"/>
<path d="M1075 650C1075 567.157 1142.16 500 1225 500C1307.84 500 1375 567.157 1375 650C1375 732.843 1307.84 800 1225 800C1142.16 800 1075 732.843 1075 650Z" fill="#263340"/>
</svg>